<svg id="Capa_1" enable-background="new 0 0 512 512" height="512" viewBox="0 0 512 512" width="512" xmlns="http://www.w3.org/2000/svg"><g><path d="m460.628 78.745c-33.507-37.022-78.177-57.411-125.781-57.411-20.596 0-40.641 3.824-59.473 11.153-28.83-21.135-62.707-32.487-98.22-32.487-47.604 0-92.275 20.389-125.782 57.411-33.128 36.604-51.372 85.171-51.372 136.756s18.244 100.152 51.372 136.755c22.923 25.328 51.072 42.866 81.81 51.421-5.282 8.171-8.362 17.891-8.362 28.323v41.667h37.334v59.667h30v-59.667h37.333v-41.667c0-10.432-3.08-20.152-8.362-28.323 5.247-1.461 10.418-3.185 15.501-5.163 16.623 12.185 34.923 21.117 54.248 26.496-5.282 8.171-8.362 17.891-8.362 28.324v41.667h37.334v38.333h30v-38.333h37.333v-41.667c0-10.432-3.08-20.153-8.362-28.323 30.738-8.556 58.887-26.093 81.81-51.421 33.129-36.604 51.373-85.171 51.373-136.756s-18.244-100.152-51.372-136.755zm-261.141 343.588h-44.667v-11.667c0-12.314 10.019-22.333 22.334-22.333 12.314 0 22.333 10.019 22.333 22.333zm-22.333-64c-81.141 0-147.154-73.644-147.154-164.166s66.013-164.167 147.154-164.167c24.303 0 47.246 6.612 67.467 18.3-12.824 8.345-24.771 18.527-35.557 30.444-33.128 36.604-51.372 85.171-51.372 136.755s17.975 100.25 53.013 138.524c-10.78 2.817-22.012 4.31-33.551 4.31zm180.026 85.334h-44.667v-11.667c0-12.315 10.019-22.333 22.334-22.333 12.314 0 22.333 10.019 22.333 22.333zm-22.333-64c-81.142 0-147.154-73.645-147.154-164.167s66.012-164.167 147.154-164.167c81.14 0 147.153 73.645 147.153 164.167s-66.013 164.167-147.153 164.167z"/><path d="m372.365 297.577c-11.436 7.874-24.317 12.089-37.518 12.089v30c21.186 0 41.58-7.216 58.996-20.612z"/><path d="m393.519 276.305 21.468 21.468c17.479-22.732 27.013-51.571 27.013-82.273 0-34.19-11.816-66.076-33.272-89.783l-22.244 20.131c16.455 18.18 25.516 42.917 25.516 69.652 0 22.627-6.513 43.805-18.481 60.805z"/></g></svg>