<?xml version="1.0" encoding="iso-8859-1"?>
<!-- Generator: Adobe Illustrator 19.0.0, SVG Export Plug-In . SVG Version: 6.00 Build 0)  -->
<svg version="1.1" id="Capa_1" xmlns="http://www.w3.org/2000/svg" xmlns:xlink="http://www.w3.org/1999/xlink" x="0px" y="0px"
	 viewBox="0 0 512 512" style="enable-background:new 0 0 512 512;" xml:space="preserve">
<g>
	<g>
		<path d="M451.038,60.012H225.994C225.994,26.921,199.073,0,165.982,0s-60.012,26.921-60.012,60.012H60.962
			c-8.286,0-15.003,6.717-15.003,15.003v422.082c0,8.286,6.717,14.903,15.003,14.903h299.942c0.038,0,0.076,0,0.113,0
			c4.025,0,7.815-1.494,10.612-4.295l90.018-90.018c0.116-0.116,0.23-0.234,0.342-0.353c2.503-2.672,4.041-6.261,4.053-10.209
			c0-0.004,0-0.008,0-0.011s0-0.008,0-0.012c0-0.008,0-0.016,0-0.024V75.015C466.041,66.729,459.324,60.012,451.038,60.012z
			 M165.982,30.006c16.545,0,30.006,13.461,30.006,30.006h-60.012C135.977,43.466,149.437,30.006,165.982,30.006z M376.023,460.877
			v-38.795h38.795L376.023,460.877z M436.035,392.077H361.02c-8.286,0-15.003,6.717-15.003,15.003v75.015H75.965V90.018h120.023
			v77.015c0,8.273-6.73,15.003-15.003,15.003s-15.003-6.73-15.003-15.003v-30.006c0-8.286-6.717-15.003-15.003-15.003
			c-8.286,0-15.003,6.717-15.003,15.003v30.006c0,24.818,20.191,45.009,45.009,45.009s45.009-20.191,45.009-45.009V90.018h210.041
			V392.077z"/>
	</g>
</g>
<g>
	<g>
		<path d="M301.009,362.071H150.979c-8.286,0-15.003,6.717-15.003,15.003c0,8.286,6.717,15.003,15.003,15.003h150.029
			c8.286,0,15.003-6.717,15.003-15.003C316.012,368.788,309.294,362.071,301.009,362.071z"/>
	</g>
</g>
<g>
	<g>
		<path d="M361.02,272.053H150.979c-8.286,0-15.003,6.717-15.003,15.003c0,8.286,6.717,15.003,15.003,15.003H361.02
			c8.286,0,15.003-6.717,15.003-15.003C376.023,278.77,369.306,272.053,361.02,272.053z"/>
	</g>
</g>
<g>
	<g>
		<path d="M361.02,182.036h-90.018c-8.286,0-15.003,6.717-15.003,15.003c0,8.286,6.717,15.003,15.003,15.003h90.018
			c8.286,0,15.003-6.717,15.003-15.003C376.023,188.753,369.306,182.036,361.02,182.036z"/>
	</g>
</g>
</svg>
