<?xml version="1.0" standalone="no"?>
<!DOCTYPE svg PUBLIC "-//W3C//DTD SVG 20010904//EN"
 "http://www.w3.org/TR/2001/REC-SVG-20010904/DTD/svg10.dtd">
<svg version="1.0" xmlns="http://www.w3.org/2000/svg"
 width="408.000000pt" height="408.000000pt" viewBox="0 0 408.000000 408.000000"
 preserveAspectRatio="xMidYMid meet">
<metadata>
Created by potrace 1.16, written by Peter Selinger 2001-2019
</metadata>
<g transform="translate(0.000000,408.000000) scale(0.100000,-0.100000)"
fill="#000000" stroke="none">
<path d="M494 4061 c-192 -57 -336 -173 -423 -341 -76 -146 -71 1 -71 -1901
l0 -1706 23 -34 c49 -73 132 -99 210 -65 18 8 190 172 387 370 l355 356 1238
0 c1394 0 1319 -4 1485 76 169 81 295 231 356 421 l26 82 0 1096 c0 1090 0
1096 -21 1163 -39 122 -97 220 -179 302 -84 84 -154 129 -262 168 l-73 27
-1495 2 c-1412 2 -1498 1 -1556 -16z m3019 -341 c75 -23 150 -87 188 -160 l24
-45 0 -1100 0 -1100 -23 -43 c-35 -66 -88 -119 -150 -149 l-57 -28 -1315 -5
c-1081 -4 -1319 -7 -1340 -19 -14 -7 -132 -120 -263 -250 l-237 -236 2 1465 3
1465 24 45 c37 71 113 137 185 159 59 19 103 20 1477 20 1391 1 1418 1 1482
-19z"/>
</g>
</svg>
