<svg  x="0px" y="0px"
	 viewBox="0 0 512 512" >

	<g>
		<path d="M493.583,134.446H368.345v36.835h106.82v294.676H162.072v-106.82h-36.835v125.237c0,10.172,8.245,18.417,18.417,18.417
			h349.928c10.179,0,18.417-8.239,18.417-18.417V152.863C512,142.691,503.755,134.446,493.583,134.446z"/>
	</g>

	<g>
		<path d="M368.345,9.209H18.417C8.245,9.209,0,17.453,0,27.626v331.511c0,10.172,8.245,18.417,18.417,18.417h349.928
			c10.172,0,18.417-8.245,18.417-18.417V27.626C386.763,17.453,378.518,9.209,368.345,9.209z M349.928,340.719H36.835V46.043
			h313.094V340.719z"/>
	</g>

</svg>
