<?xml version="1.0" encoding="iso-8859-1"?>
<!-- Generator: Adobe Illustrator 19.0.0, SVG Export Plug-In . SVG Version: 6.00 Build 0)  -->
<svg version="1.1" id="Capa_1" xmlns="http://www.w3.org/2000/svg" xmlns:xlink="http://www.w3.org/1999/xlink" x="0px" y="0px"
	 viewBox="0 0 490 490" style="enable-background:new 0 0 490 490;" xml:space="preserve">
<g>
	<g>
		<g>
			<path d="M243.5,250.1c68.4,0,124.5-57.2,124.5-125.6S311.9,0,243.5,0S119,57.2,119,125.6S175.1,250.1,243.5,250.1z M243.5,40.8
				c45.9,0,83.7,38.8,83.7,84.7s-37.8,83.7-83.7,83.7s-83.7-38.8-83.7-84.7S197.5,40.8,243.5,40.8z"/>
			<path d="M333.3,259.3c-11.2-4.1-22.5,0-27.6,10.2c-4.1,11.2,0,22.5,10.2,27.6c61.3,28.6,91.9,69.4,91.9,124.5v28.6H82.2v-28.6
				c0-55.1,29.6-96,91.9-124.5c10.2-5.1,15.3-17.4,10.2-27.6s-17.4-15.3-27.6-10.2C80.1,294,40.3,350.1,40.3,420.6v49
				c0,11.2,9.2,20.4,20.4,20.4h365.5c11.2,0,20.4-9.2,23.5-20.4v-49C449.7,350.1,408.8,294,333.3,259.3z"/>
			<path d="M223.1,281.8v121.5c0,11.2,9.2,20.4,20.4,20.4s20.4-9.2,20.4-20.4V281.8c0-11.2-9.2-20.4-20.4-20.4
				C232.2,261.3,223.1,270.5,223.1,281.8z"/>
		</g>
	</g>
</g>
<g>
</g>
<g>
</g>
<g>
</g>
<g>
</g>
<g>
</g>
<g>
</g>
<g>
</g>
<g>
</g>
<g>
</g>
<g>
</g>
<g>
</g>
<g>
</g>
<g>
</g>
<g>
</g>
<g>
</g>
</svg>
